<svg xmlns="http://www.w3.org/2000/svg" xmlns:xlink="http://www.w3.org/1999/xlink" width="480" zoomAndPan="magnify" viewBox="0 0 360 359.999987" height="480" preserveAspectRatio="xMidYMid meet" version="1.0"><path fill="#fefefe" d="M 18 18 L 342 18 L 342 342 L 18 342 Z M 18 18 " fill-opacity="1" fill-rule="nonzero"/><path fill="#000000" d="M 186.886719 135.046875 C 187.273438 134.96875 187.273438 134.96875 187.761719 134.96875 L 188.324219 134.964844 L 188.949219 134.96875 L 189.605469 134.96875 C 190.335938 134.964844 191.070312 134.96875 191.804688 134.96875 C 192.328125 134.96875 192.851562 134.96875 193.375 134.96875 C 194.652344 134.964844 195.933594 134.96875 197.210938 134.96875 C 198.710938 134.972656 200.207031 134.972656 201.703125 134.972656 C 204.382812 134.972656 207.0625 134.972656 209.742188 134.976562 C 212.328125 134.980469 214.910156 134.980469 217.496094 134.980469 C 220.621094 134.980469 223.742188 134.980469 226.867188 134.984375 L 227.320312 134.984375 C 228.355469 134.984375 229.390625 134.984375 230.425781 134.984375 C 257.285156 134.976562 257.285156 134.976562 264.65625 139.132812 C 267.011719 140.539062 269.136719 142.277344 271.125 144.15625 L 271.660156 144.652344 C 274.9375 147.792969 277.527344 151.738281 278.820312 156.105469 C 280.453125 161.960938 280.703125 167.886719 279.246094 173.804688 C 278.113281 178.144531 276.128906 181.710938 272.984375 184.910156 C 269.441406 188.417969 264.816406 190.507812 260.042969 191.777344 L 259.53125 191.910156 L 259.070312 192.027344 C 249.953125 194.230469 239.710938 193.378906 230.394531 193.371094 C 229.503906 193.371094 228.613281 193.367188 227.722656 193.367188 C 225.988281 193.367188 224.257812 193.367188 222.523438 193.363281 C 222.546875 197.5625 222.570312 201.761719 222.59375 205.960938 C 222.605469 207.910156 222.617188 209.863281 222.625 211.8125 C 222.632812 213.515625 222.644531 215.21875 222.652344 216.921875 C 222.660156 217.820312 222.664062 218.71875 222.667969 219.617188 C 222.683594 223.003906 222.710938 226.386719 222.816406 229.773438 L 222.839844 230.511719 C 222.964844 234.113281 223.5625 237.894531 225.417969 241.050781 C 226.765625 243.027344 228.535156 244.691406 230.671875 245.78125 C 233.28125 247.03125 235.953125 247.496094 238.8125 247.757812 C 239.535156 247.835938 239.535156 247.835938 239.941406 248.039062 C 240.03125 248.453125 240.03125 248.453125 240.078125 248.953125 L 240.132812 249.453125 L 240.140625 249.863281 L 239.941406 250.066406 C 239.300781 250.085938 238.664062 250.09375 238.019531 250.089844 L 237.402344 250.09375 C 236.710938 250.09375 236.019531 250.09375 235.328125 250.09375 C 234.835938 250.09375 234.34375 250.09375 233.847656 250.09375 C 232.5 250.09375 231.148438 250.09375 229.800781 250.089844 C 228.957031 250.089844 228.113281 250.089844 227.269531 250.089844 C 218.511719 250.085938 209.75 250.050781 200.992188 249.984375 C 200.089844 249.980469 199.1875 249.972656 198.289062 249.96875 C 196.71875 249.957031 195.152344 249.945312 193.585938 249.933594 C 193.0625 249.929688 192.542969 249.925781 192.019531 249.921875 C 191.304688 249.917969 190.59375 249.910156 189.878906 249.902344 L 189.25 249.902344 L 188.667969 249.894531 L 188.167969 249.890625 C 187.660156 249.859375 187.179688 249.769531 186.683594 249.660156 C 186.554688 249.191406 186.554688 249.191406 186.480469 248.648438 L 186.886719 248.039062 C 187.386719 247.914062 187.386719 247.914062 188.023438 247.835938 L 188.746094 247.738281 C 189 247.703125 189.253906 247.671875 189.515625 247.636719 C 192.515625 247.203125 195.570312 246.433594 198.003906 244.542969 L 198.425781 244.191406 L 198.84375 243.886719 C 200.515625 242.589844 201.609375 240.660156 202.410156 238.730469 C 204.128906 234.253906 203.746094 229.074219 203.804688 224.347656 L 203.8125 223.875 C 203.957031 212.964844 203.925781 202.050781 203.894531 191.136719 L 203.894531 190.578125 C 203.875 184.636719 203.855469 178.691406 203.828125 172.746094 C 203.820312 171.234375 203.816406 169.726562 203.808594 168.214844 C 203.804688 166.355469 203.792969 164.496094 203.785156 162.636719 C 203.78125 161.679688 203.777344 160.71875 203.773438 159.757812 C 203.769531 158.867188 203.765625 157.972656 203.761719 157.082031 C 203.757812 156.761719 203.757812 156.441406 203.757812 156.117188 C 203.75 151.691406 203.335938 147.410156 201.082031 143.503906 C 199.828125 141.5 197.957031 140.070312 195.910156 138.957031 C 193.535156 137.773438 190.828125 137.460938 188.234375 137.058594 C 187.128906 136.886719 187.128906 136.886719 186.683594 136.664062 C 186.53125 136.183594 186.53125 136.183594 186.480469 135.652344 Z M 79.359375 135.046875 C 79.851562 134.984375 80.296875 134.964844 80.792969 134.96875 L 81.246094 134.964844 C 81.757812 134.964844 82.265625 134.96875 82.773438 134.96875 C 83.140625 134.96875 83.503906 134.96875 83.871094 134.96875 C 84.882812 134.964844 85.890625 134.964844 86.902344 134.96875 C 87.992188 134.96875 89.078125 134.96875 90.167969 134.96875 C 92.300781 134.964844 94.433594 134.96875 96.566406 134.96875 C 99.050781 134.972656 101.53125 134.972656 104.015625 134.972656 C 108.445312 134.972656 112.871094 134.972656 117.300781 134.976562 C 121.601562 134.980469 125.902344 134.980469 130.203125 134.980469 C 135.382812 134.980469 140.558594 134.980469 145.738281 134.984375 L 146.480469 134.984375 C 148.210938 134.984375 149.945312 134.984375 151.675781 134.984375 C 153.785156 134.984375 155.894531 134.984375 158.003906 134.988281 C 159.082031 134.988281 160.160156 134.988281 161.238281 134.988281 C 162.222656 134.988281 163.207031 134.988281 164.195312 134.992188 C 164.550781 134.992188 164.90625 134.992188 165.265625 134.992188 C 165.75 134.988281 166.234375 134.992188 166.71875 134.992188 L 167.140625 134.992188 C 167.988281 134.996094 168.679688 135.140625 169.46875 135.449219 C 169.746094 138.949219 169.972656 142.453125 170.152344 145.960938 C 170.191406 146.6875 170.230469 147.414062 170.269531 148.144531 C 170.398438 150.5625 170.507812 152.980469 170.601562 155.402344 L 170.625 156.0625 C 170.675781 157.496094 170.703125 158.925781 170.710938 160.359375 L 170.714844 160.890625 C 170.710938 161.574219 170.699219 162.136719 170.484375 162.789062 L 169.46875 162.988281 C 168.957031 162.382812 168.746094 161.890625 168.578125 161.113281 L 168.4375 160.484375 L 168.292969 159.8125 C 167.136719 154.792969 165.296875 150.261719 161.773438 146.421875 C 158.59375 143.050781 154.804688 140.734375 150.371094 139.367188 C 145.171875 137.839844 139.816406 137.820312 134.4375 137.796875 L 132.933594 137.785156 C 131.101562 137.773438 129.269531 137.761719 127.4375 137.753906 L 114.996094 137.675781 L 114.996094 188.101562 C 125.382812 188.449219 125.382812 188.449219 135.246094 185.695312 C 135.589844 185.492188 135.925781 185.28125 136.261719 185.0625 L 136.734375 184.753906 C 138.417969 183.566406 139.605469 181.925781 140.484375 180.085938 C 141.832031 177.074219 142.429688 173.84375 142.984375 170.609375 L 143.101562 169.957031 L 143.203125 169.375 C 143.363281 168.808594 143.542969 168.476562 143.953125 168.050781 C 144.601562 168 144.601562 168 145.171875 168.050781 C 145.359375 168.691406 145.394531 169.257812 145.390625 169.921875 L 145.386719 170.574219 L 145.378906 171.289062 L 145.375 172.042969 C 145.371094 172.734375 145.363281 173.421875 145.359375 174.109375 C 145.351562 174.839844 145.347656 175.574219 145.34375 176.304688 C 145.332031 177.71875 145.320312 179.128906 145.308594 180.539062 C 145.300781 181.671875 145.289062 182.804688 145.28125 183.9375 C 145.222656 191.339844 145.164062 198.742188 145.074219 206.148438 C 145.070312 206.640625 145.0625 207.136719 145.058594 207.628906 C 145.050781 208.382812 145.039062 209.136719 145.03125 209.894531 C 145.023438 210.285156 145.019531 210.675781 145.015625 211.070312 L 145.007812 211.753906 L 145 212.347656 C 144.96875 212.804688 144.96875 212.804688 144.765625 213.210938 C 144.285156 213.347656 144.285156 213.347656 143.753906 213.414062 L 143.144531 213.210938 L 143.039062 212.609375 C 141.570312 204.296875 141.570312 204.296875 137.476562 197.011719 C 135.664062 194.902344 133.613281 193.378906 131.007812 192.363281 C 129.308594 191.777344 127.613281 191.503906 125.828125 191.335938 L 125.269531 191.285156 C 123.144531 191.09375 121.015625 191 118.882812 190.910156 L 117.683594 190.855469 C 116.71875 190.8125 115.757812 190.773438 114.796875 190.734375 L 114.8125 191.226562 C 114.929688 194.765625 115.015625 198.308594 115.054688 201.851562 L 115.058594 202.398438 C 115.074219 203.703125 115.085938 205.007812 115.097656 206.3125 C 115.15625 212.632812 115.15625 212.632812 115.296875 218.949219 L 115.308594 219.382812 C 115.488281 225.789062 115.84375 232.300781 119.25 237.914062 C 121.035156 240.605469 123.167969 242.597656 126.035156 244.105469 C 128.699219 245.390625 131.503906 246.222656 134.4375 246.621094 L 134.886719 246.6875 C 142.949219 247.753906 152.160156 247.449219 159.75 244.363281 C 164.058594 242.535156 167.972656 239.757812 170.839844 236.027344 C 174.5625 231.015625 176.433594 225.078125 177.882812 219.078125 L 178.054688 218.398438 L 178.199219 217.792969 C 178.386719 217.246094 178.613281 216.886719 178.988281 216.449219 C 179.394531 216.511719 179.796875 216.578125 180.203125 216.652344 L 180.40625 216.855469 C 180.457031 217.5625 180.4375 218.273438 180.4375 218.980469 L 180.433594 219.699219 C 180.414062 223.667969 180.261719 227.636719 180.136719 231.601562 C 180.105469 232.492188 180.078125 233.382812 180.050781 234.273438 C 179.820312 241.707031 179.820312 241.707031 179.6875 245.164062 L 179.667969 245.71875 C 179.519531 249.40625 179.519531 249.40625 179.191406 250.066406 L 79.15625 250.066406 L 78.75 249.253906 C 78.824219 248.699219 78.824219 248.699219 78.953125 248.242188 C 79.867188 248 80.792969 247.792969 81.722656 247.621094 C 85.535156 246.917969 88.683594 246.097656 91.757812 243.625 C 93.398438 242.136719 94.386719 240.15625 95.070312 238.078125 L 95.226562 237.574219 L 95.375 237.121094 C 96.316406 233.867188 96.242188 230.316406 96.289062 226.960938 L 96.300781 226.273438 C 96.402344 220.039062 96.398438 213.804688 96.394531 207.570312 C 96.394531 206.363281 96.394531 205.15625 96.394531 203.945312 L 96.394531 202.351562 C 96.394531 199.058594 96.394531 195.769531 96.394531 192.476562 C 96.394531 189.667969 96.394531 186.855469 96.394531 184.046875 C 96.394531 180.226562 96.394531 176.410156 96.394531 172.589844 C 96.394531 171.382812 96.394531 170.179688 96.394531 168.972656 C 96.394531 167.503906 96.394531 166.035156 96.394531 164.5625 C 96.394531 163.816406 96.394531 163.070312 96.394531 162.324219 C 96.394531 159.582031 96.382812 156.84375 96.28125 154.105469 L 96.257812 153.492188 C 96.113281 150.167969 95.519531 146.523438 93.710938 143.667969 C 92.253906 141.546875 90.351562 139.988281 88.050781 138.863281 C 85.980469 137.9375 83.757812 137.554688 81.523438 137.269531 C 79.886719 137.058594 79.886719 137.058594 79.15625 136.664062 C 78.964844 136.171875 78.964844 136.171875 78.953125 135.652344 Z M 79.359375 135.046875 " fill-opacity="1" fill-rule="nonzero"/><path fill="#fefefe" d="M 222.523438 137.675781 C 242.378906 137.675781 242.378906 137.675781 247.429688 140.582031 C 248.71875 141.347656 249.9375 142.175781 251.078125 143.144531 L 251.558594 143.539062 C 254.804688 146.296875 256.796875 149.898438 258.214844 153.863281 C 258.332031 154.203125 258.453125 154.546875 258.570312 154.890625 L 258.835938 155.652344 C 259.90625 159.121094 259.898438 163.03125 259.785156 166.636719 L 259.773438 167.0625 C 259.632812 171.679688 258.324219 175.886719 255.953125 179.859375 C 253.84375 183.21875 250.929688 186.007812 247.453125 187.90625 C 242.84375 190.320312 237.941406 190.394531 232.851562 190.53125 L 232.292969 190.546875 C 230.992188 190.578125 229.6875 190.613281 228.386719 190.640625 C 227.9375 190.652344 227.492188 190.660156 227.042969 190.671875 C 226.410156 190.6875 225.773438 190.703125 225.140625 190.714844 L 224.554688 190.730469 L 224.011719 190.738281 L 223.539062 190.75 C 223.132812 190.734375 223.132812 190.734375 222.523438 190.53125 Z M 222.523438 137.675781 " fill-opacity="1" fill-rule="nonzero"/><path fill="#000000" d="M 179.390625 70.449219 C 180.089844 70.742188 180.472656 71.105469 180.960938 71.675781 C 181.820312 72.652344 182.703125 73.613281 183.59375 74.5625 L 184.015625 75.007812 C 184.992188 76.042969 185.984375 77.054688 187 78.050781 C 187.820312 78.851562 188.566406 79.707031 189.316406 80.574219 C 189.828125 81.160156 190.351562 81.738281 190.882812 82.304688 L 191.277344 82.757812 C 191.6875 83.1875 192.046875 83.503906 192.554688 83.8125 C 194.097656 83.925781 195.730469 83.441406 197.222656 83.101562 L 197.902344 82.953125 C 198.609375 82.796875 199.316406 82.640625 200.023438 82.484375 C 200.734375 82.324219 201.445312 82.167969 202.15625 82.011719 C 202.597656 81.914062 203.039062 81.816406 203.476562 81.71875 L 204.082031 81.582031 L 204.609375 81.464844 C 205.125 81.378906 205.601562 81.367188 206.121094 81.382812 C 205.832031 82 205.488281 82.554688 205.105469 83.117188 L 204.734375 83.664062 L 204.339844 84.242188 L 203.925781 84.84375 C 202.761719 86.542969 201.5625 88.210938 200.351562 89.875 C 199.78125 90.65625 199.222656 91.445312 198.660156 92.234375 C 198.449219 92.53125 198.234375 92.828125 198.023438 93.128906 L 197.757812 93.5625 L 197.414062 93.9375 C 196.929688 94.027344 196.929688 94.027344 196.351562 94.007812 L 195.691406 93.984375 C 194.578125 93.910156 193.472656 93.804688 192.363281 93.6875 C 188.582031 93.296875 184.808594 93.175781 181.011719 93.128906 L 180.265625 93.117188 C 175.484375 93.0625 170.714844 93.265625 165.957031 93.730469 C 165.171875 93.808594 164.382812 93.875 163.597656 93.9375 L 162.976562 93.988281 C 162.488281 94.011719 162.054688 94.023438 161.574219 93.9375 C 161.074219 93.546875 161.074219 93.546875 160.710938 92.976562 L 160.261719 92.300781 L 160.019531 91.921875 C 159.613281 91.296875 159.175781 90.691406 158.746094 90.082031 C 157.644531 88.527344 156.5625 86.953125 155.484375 85.382812 L 155.164062 84.914062 C 153.671875 82.734375 153.671875 82.734375 153.269531 81.988281 L 153.269531 81.585938 C 154.570312 81.519531 155.765625 81.765625 157.035156 82.027344 L 157.714844 82.164062 C 158.667969 82.355469 159.621094 82.550781 160.574219 82.746094 C 161.269531 82.886719 161.96875 83.027344 162.667969 83.167969 C 162.882812 83.210938 163.09375 83.253906 163.316406 83.300781 C 164.867188 83.652344 164.867188 83.652344 166.433594 83.609375 C 167.039062 83.199219 167.539062 82.710938 168.050781 82.191406 L 168.425781 81.832031 C 168.796875 81.472656 169.167969 81.105469 169.535156 80.738281 L 169.9375 80.332031 C 170.21875 80.054688 170.5 79.773438 170.777344 79.492188 C 171.203125 79.066406 171.628906 78.644531 172.054688 78.21875 L 172.875 77.394531 L 173.253906 77.019531 C 174.011719 76.257812 174.730469 75.472656 175.429688 74.660156 C 175.804688 74.230469 176.1875 73.8125 176.582031 73.398438 L 177.003906 72.949219 L 177.429688 72.496094 L 177.871094 72.03125 C 178.914062 70.925781 178.914062 70.925781 179.390625 70.449219 M 179.113281 96.53125 L 179.65625 96.53125 C 191.167969 96.554688 202.472656 98.476562 213.808594 100.324219 C 222.429688 101.734375 231.042969 103.089844 239.773438 103.605469 L 240.429688 103.644531 C 241.511719 103.707031 242.589844 103.769531 243.667969 103.824219 C 248.980469 104.113281 248.980469 104.113281 251.367188 105.523438 C 252.949219 106.625 254.0625 108.019531 254.925781 109.734375 C 255.527344 111.195312 255.566406 112.726562 255.597656 114.289062 L 255.609375 114.851562 C 255.621094 115.449219 255.632812 116.046875 255.644531 116.644531 L 255.660156 117.257812 C 255.730469 120.621094 255.761719 123.984375 255.734375 127.351562 C 254.890625 127.570312 254.179688 127.582031 253.304688 127.550781 L 252.898438 127.351562 L 252.894531 126.890625 C 252.875 125.457031 252.851562 124.023438 252.832031 122.585938 C 252.820312 121.847656 252.808594 121.109375 252.800781 120.371094 C 252.789062 119.660156 252.777344 118.945312 252.769531 118.230469 C 252.761719 117.832031 252.757812 117.429688 252.75 117.03125 C 252.816406 113.230469 252.816406 113.230469 251.628906 109.703125 C 250.988281 108.785156 250.261719 108.011719 249.253906 107.503906 C 248.125 107.113281 247.046875 106.996094 245.863281 106.910156 L 245.238281 106.859375 C 244.015625 106.765625 242.792969 106.683594 241.566406 106.609375 C 230.953125 105.960938 220.503906 104.28125 210.015625 102.59375 C 201.003906 101.132812 201.003906 101.132812 191.949219 100.011719 L 191.464844 99.960938 C 183.53125 99.148438 175.449219 98.976562 167.523438 99.953125 C 167 100.015625 166.480469 100.078125 165.957031 100.136719 C 159.917969 100.835938 153.925781 101.761719 147.929688 102.746094 L 147.398438 102.832031 L 143.230469 103.519531 C 134.328125 104.984375 125.449219 106.113281 116.441406 106.6875 C 112.679688 106.8125 112.679688 106.8125 109.175781 107.988281 C 108.207031 108.683594 107.433594 109.511719 106.871094 110.566406 C 106.046875 112.726562 106.253906 115.324219 106.226562 117.597656 L 106.214844 118.429688 C 106.203125 119.152344 106.191406 119.871094 106.183594 120.59375 C 106.171875 121.332031 106.160156 122.074219 106.148438 122.8125 C 106.128906 124.257812 106.105469 125.703125 106.085938 127.148438 C 105.488281 127.464844 105.101562 127.601562 104.417969 127.578125 L 103.65625 127.550781 C 103.429688 126.449219 103.425781 125.382812 103.429688 124.261719 L 103.425781 123.652344 C 103.425781 123.003906 103.429688 122.355469 103.429688 121.707031 L 103.429688 121.039062 C 103.449219 111.144531 103.449219 111.144531 104.265625 109.328125 C 105.226562 107.675781 106.433594 106.347656 108.054688 105.339844 C 110.261719 104.132812 112.660156 104.019531 115.136719 103.875 L 116.601562 103.78125 L 117.367188 103.730469 C 128.328125 103.035156 139.082031 101.363281 149.90625 99.570312 C 159.582031 97.96875 169.28125 96.519531 179.113281 96.53125 M 179.191406 266.871094 L 179.796875 266.871094 L 179.921875 267.3125 C 181.101562 271.855469 181.101562 271.855469 183.519531 275.808594 C 184.625 276.789062 185.949219 277.21875 187.371094 277.523438 C 188.375 277.679688 189.375 277.671875 190.390625 277.667969 L 191.09375 277.664062 C 193.183594 277.636719 195.167969 277.410156 197.210938 276.996094 L 197.757812 276.890625 C 201.347656 276.179688 204.828125 275.105469 208.320312 274.023438 L 208.886719 273.851562 C 209.238281 273.742188 209.59375 273.632812 209.945312 273.519531 C 211.140625 273.148438 211.140625 273.148438 211.589844 273.148438 L 211.386719 273.757812 C 210.867188 274.09375 210.867188 274.09375 210.171875 274.464844 C 209.074219 275.070312 208.003906 275.714844 206.957031 276.402344 C 204.742188 277.851562 202.5 279.25 200.25 280.640625 L 199.808594 280.917969 C 193.757812 284.65625 186.851562 288.601562 179.566406 288.824219 C 177.441406 288.851562 175.535156 288.621094 173.519531 287.933594 L 173.050781 287.773438 C 167.957031 286.023438 163.3125 283.445312 158.738281 280.640625 L 157.546875 279.921875 C 155.894531 278.917969 154.273438 277.890625 152.71875 276.746094 C 151.140625 275.59375 149.464844 274.582031 147.800781 273.554688 C 148.257812 273.40625 148.5625 273.34375 149.039062 273.429688 L 149.503906 273.574219 L 150.035156 273.734375 L 150.609375 273.917969 L 151.214844 274.101562 C 151.851562 274.296875 152.492188 274.496094 153.132812 274.695312 C 155.613281 275.464844 158.089844 276.214844 160.632812 276.769531 L 161.191406 276.894531 C 164.910156 277.671875 169.390625 278.207031 173.113281 277.199219 C 174.210938 276.800781 174.972656 276.261719 175.746094 275.378906 L 176.164062 274.910156 C 177.296875 273.339844 177.78125 271.535156 178.328125 269.707031 L 178.582031 268.882812 C 178.785156 268.210938 178.988281 267.542969 179.191406 266.871094 " fill-opacity="1" fill-rule="nonzero"/><path fill="#fefefe" d="M 179.390625 74.496094 C 180.003906 74.769531 180.425781 75.074219 180.894531 75.550781 L 181.285156 75.9375 L 181.683594 76.34375 L 182.074219 76.738281 C 182.847656 77.519531 183.585938 78.324219 184.304688 79.15625 C 186.078125 81.1875 187.980469 83.109375 189.871094 85.027344 L 190.339844 85.507812 L 190.78125 85.953125 L 191.167969 86.34375 C 191.519531 86.65625 191.519531 86.65625 191.910156 86.808594 C 192.546875 86.867188 193.09375 86.738281 193.71875 86.605469 L 194.113281 86.519531 C 194.53125 86.433594 194.949219 86.34375 195.363281 86.253906 C 195.78125 86.167969 196.195312 86.078125 196.609375 85.992188 C 196.988281 85.910156 197.367188 85.832031 197.746094 85.75 C 198.394531 85.640625 198.988281 85.613281 199.640625 85.636719 C 199.433594 86.765625 198.691406 87.644531 198.0625 88.585938 L 197.675781 89.171875 L 197.296875 89.738281 L 196.953125 90.25 C 196.582031 90.726562 196.332031 91.023438 195.796875 91.304688 C 195.28125 91.320312 194.773438 91.296875 194.265625 91.238281 L 193.804688 91.195312 C 193.320312 91.152344 192.835938 91.101562 192.351562 91.050781 C 191.722656 90.992188 191.09375 90.929688 190.46875 90.871094 L 189.980469 90.824219 C 186.390625 90.496094 182.804688 90.453125 179.203125 90.457031 L 178.488281 90.457031 C 173.992188 90.460938 169.550781 90.625 165.09375 91.230469 L 164.40625 91.304688 C 164.167969 91.339844 163.929688 91.378906 163.683594 91.414062 L 162.988281 91.304688 C 162.480469 90.839844 162.128906 90.289062 161.761719 89.710938 L 161.445312 89.234375 C 161.144531 88.78125 160.851562 88.324219 160.558594 87.863281 L 160.125 87.199219 C 159.523438 86.242188 159.523438 86.242188 159.34375 85.835938 L 159.546875 85.433594 C 160.386719 85.59375 161.226562 85.753906 162.066406 85.914062 L 162.78125 86.050781 L 163.484375 86.183594 L 164.171875 86.316406 C 164.730469 86.429688 165.28125 86.558594 165.832031 86.695312 C 166.335938 86.804688 166.683594 86.847656 167.207031 86.820312 C 167.75 86.609375 168.035156 86.347656 168.433594 85.925781 L 168.808594 85.53125 C 169.066406 85.253906 169.316406 84.96875 169.5625 84.679688 C 170.71875 83.335938 171.976562 82.105469 173.238281 80.859375 C 174.128906 79.980469 174.984375 79.085938 175.800781 78.136719 C 176.453125 77.394531 177.160156 76.710938 177.859375 76.015625 L 178.308594 75.570312 C 178.671875 75.210938 179.03125 74.855469 179.390625 74.496094 " fill-opacity="1" fill-rule="nonzero"/></svg>